# xmcd
#
# Track frame offsets: 
#        150
#        18832
#        31561
#        42855
#        56021
#        74175
#        88293
#        102328
#        116326
#        132226
#
# Disc length: 1873 seconds
#
# Revision: 0
# Processed by: cddbd v1.5.2PL0 Copyright (c) Steve Scherf et al.
# Submitted via: ExactAudioCopyFreeDBPlugin 1.0
#
DISCID=83074f0a
DTITLE=Farm Hands Quartet - Songs From Mama's Hymn Book
DYEAR=2011
DGENRE=Bluegrass
TTITLE0=Anywhere Is Home
TTITLE1=The Four Of Us
TTITLE2=Old Rugged Cross
TTITLE3=Washed In The Blood
TTITLE4=Tramp On The Street
TTITLE5=Who Will Sing For Me
TTITLE6=Jesus Blazed The Trail
TTITLE7=If Jesus Came To Your Home
TTITLE8=Life'S Railway To Heaven
TTITLE9=Where The Sould Never Dies
EXTD=
EXTT0=
EXTT1=
EXTT2=
EXTT3=
EXTT4=
EXTT5=
EXTT6=
EXTT7=
EXTT8=
EXTT9=
PLAYORDER=
